<?xml version="1.0" encoding="utf-8"?>
<!-- Generator: Adobe Illustrator 27.5.0, SVG Export Plug-In . SVG Version: 6.00 Build 0)  -->
<svg version="1.1" xmlns="http://www.w3.org/2000/svg" xmlns:xlink="http://www.w3.org/1999/xlink" x="0px" y="0px"
	 viewBox="0 0 500 500" style="enable-background:new 0 0 500 500;" xml:space="preserve">
<g id="BACKGROUND">
	<rect style="fill:#FFE6CC;" width="500" height="500"/>
	<rect style="fill:#F5CBA2;" width="500" height="500"/>
</g>
<g id="OBJECTS">
	<circle style="fill:#E0B284;" cx="431.907" cy="97.633" r="5.031"/>
	<path style="fill:#E0B284;" d="M411.498,71.789c0-1.389-1.126-2.515-2.516-2.515c-1.389,0-2.515,1.126-2.515,2.515
		c0,1.389,1.126,2.516,2.515,2.516C410.372,74.305,411.498,73.178,411.498,71.789z"/>
	<path style="fill:#E0B284;" d="M36.63,139.327c0-1.389-1.126-2.515-2.515-2.515c-1.389,0-2.515,1.126-2.515,2.515
		c0,1.389,1.126,2.516,2.515,2.516C35.504,141.842,36.63,140.716,36.63,139.327z"/>
	<path style="fill:#E0B284;" d="M431.989,421.804c0-1.389-1.126-2.516-2.515-2.516c-1.389,0-2.515,1.126-2.515,2.516
		c0,1.389,1.126,2.516,2.515,2.516C430.863,424.32,431.989,423.193,431.989,421.804z"/>
	<circle style="fill:#E0B284;" cx="36.854" cy="358.936" r="5.031"/>
	<path style="fill:#E0B284;" d="M432.569,393.59c0-2.779-2.253-5.031-5.031-5.031c-2.778,0-5.031,2.252-5.031,5.031
		s2.253,5.031,5.031,5.031C430.316,398.621,432.569,396.369,432.569,393.59z"/>
	<circle style="fill:#E0B284;" cx="167.428" cy="74.305" r="5.031"/>
	<circle style="fill:#E0B284;" cx="328.535" cy="32.969" r="5.031"/>
	<path style="fill:#E0B284;" d="M320.418,419.667c-116.882,44.785-211.978,22.598-254.919-104.78
		C22.559,187.509,193.056,29.094,343.526,82.401S515.238,345.02,320.418,419.667z"/>
	<g>
		<defs>
			<rect id="SVGID_1_" width="500" height="500"/>
		</defs>
		<clipPath id="SVGID_00000114756496198754872470000005035971218061602695_">
			<use xlink:href="#SVGID_1_"  style="overflow:visible;"/>
		</clipPath>
		<path style="clip-path:url(#SVGID_00000114756496198754872470000005035971218061602695_);fill:#E0B284;" d="M-21.522,119.707
			c46.879,26.32,53.377-55.142,121.009-57.75S228.234,29.942,188.307-21C148.38-71.942,58.304-84.37,3.522-49.815
			C-51.261-15.261-70.044,92.464-21.522,119.707z"/>
		<path style="clip-path:url(#SVGID_00000114756496198754872470000005035971218061602695_);fill:#E0B284;" d="M-27.261,399.522
			c58.988-26.866,121.708,2.688,117.985,61.083C87,519,20.228,543.52-30.386,525.521C-81,507.522-79.956,423.522-27.261,399.522z"/>
		<path style="clip-path:url(#SVGID_00000114756496198754872470000005035971218061602695_);fill:#E0B284;" d="M503.322,468.746
			c-69.437,13.392-90.269-79.492-16.042-93.734C561.507,360.77,576.651,454.603,503.322,468.746z"/>
		<path style="clip-path:url(#SVGID_00000114756496198754872470000005035971218061602695_);fill:#E0B284;" d="M367.359,2.646
			c4.369,67.663,110.809,69.148,115.492,0C486.373-49.353,362.606-70.963,367.359,2.646z"/>
	</g>
	<g>
		<g>
			<g>
				<path style="fill:#7A2422;" d="M390.567,360.068c0.165-5.019-0.874-9.698-3.291-13.543c-1.311-2.078-3.009-3.941-3.854-6.252
					c-0.806-2.194-0.757-4.641-1.621-6.815c-1.058-2.66-3.359-4.65-4.524-7.252c-1.544-3.417-0.951-7.349-1.01-11.096
					c0-0.117,0-0.223-0.01-0.34c-0.107-3.66-1.272-7.737-4.573-9.252c0.981-3.33,0.641-7.427-0.631-11.038
					c-1.281-3.611-3.417-6.844-5.543-10.028c-1.99-2.98-3.835-6.068-5.961-8.951c-2.874-3.893-4.504-8.252-5.068-12.756
					c-0.262-2.058-0.349-4.126-0.34-6.194c0.01-2.475,0.155-4.951,0.301-7.427c0.175-3.097,0.359-6.223,1.272-9.194
					c0.68-2.204,1.738-4.271,2.864-6.281c2.087-3.718,4.408-7.31,6.941-10.737c1.34-1.806,2.786-3.611,4.738-4.728
					c1.447-0.835,3.233-1.349,4.495-2.379c-7.815-3.941-15.64-7.922-23.455-11.921c-3.699-1.912-7.407-3.815-11.106-5.737
					c-6.436-3.34-11.98-8.116-16.445-13.834c-11.106-14.232-27.299-23.387-42.803-32.085c-1.514-0.845-3.01-1.689-4.495-2.524
					c-29.163-16.358-54.045-30.008-86.567-40.356c-1.971,3.796-4.029,7.543-6.165,11.252c-2.311,4.029-4.708,7.999-7.203,11.912
					c-4.854,7.621-10.145,15.242-12.222,24.037c-0.35,1.476-0.592,2.971-0.747,4.475c-0.32,3.301-0.165,6.64,0.417,9.902
					c0.33,1.777,0.777,3.534,1.35,5.242v0.01c0.971,2.864,2.281,5.601,3.903,8.145c3.107,4.854,3.213,11.067-0.068,15.805
					c-2.165,3.136-4.145,6.271-5.932,9.465c-1.893,3.407-3.573,6.873-4.98,10.446c-0.243,0.612-0.485,1.233-0.709,1.854
					c-2.175,5.922-3.611,12.222-3.874,18.523c-0.214,5.058,0.33,10.116,1.854,14.951c2.767,8.795,8.533,16.3,14.436,23.387
					c4.66,5.602,9.592,11.174,15.824,14.97c5.708,3.495,12.747,5.33,19.203,3.806c0.107,1.524,0.223,3.039,0.33,4.563
					c0.582,8.009,1.165,16.038,1.078,24.066c-0.01,1.019-0.039,2.039-0.068,3.058c-0.388,11.252-2.301,22.484-5.776,33.182
					c2.019-0.223,4.039-0.476,6.058-0.748c1.427-0.184,44.521,0.252,88.421,0.748c46.356,0.534,93.615,1.126,93.615,1.126
					c2.029,0.612,4.087,1.155,6.155,1.641C393.43,363.427,392.023,361.719,390.567,360.068z M388.868,361.486
					c-0.98-0.68-2.534-1.466-3.563-2.786c-0.641-0.835-1.039-1.825-1.291-2.845c-0.369-1.495-0.447-3.058-0.476-4.602
					c-0.039-2.252,0-4.514,0.136-6.767c0.505,1.165,1.621,2.126,2.456,3.272c0.408,0.553,0.738,1.155,1.048,1.767
					C388.984,353.204,389.586,357.457,388.868,361.486z"/>
				<path style="fill:#9E9B5F;" d="M468.949,336.468c-5.145,11.125-14.834,20.115-26.115,25.309
					c-0.272-3.194-0.349-6.427,0.524-9.485c1.641-5.747,6.359-10.048,11.116-13.659c2.175-1.65,4.524-3.272,7.223-3.67
					C464.222,334.585,466.649,335.303,468.949,336.468z"/>
				<path style="fill:#9E9B5F;" d="M471.959,327.595c-0.058,0.282-0.126,0.563-0.204,0.835c-2.301-1.136-4.99-1.456-7.436-0.699
					c-3.243,1-5.99,3.611-9.378,3.767c-0.932,0.039-1.942-0.146-2.631-0.796c-0.631-0.592-0.893-1.466-1.126-2.301
					c-1.116-3.98-2.175-7.97-3.145-11.989c2.641,1.058,5.33,2,8.048,2.835c0.951,0.291,1.951,0.573,2.932,0.379
					c1.689-0.34,2.767-1.922,3.864-3.242c2.466-2.951,5.922-5.068,9.659-5.961C473.279,316.159,473.192,321.954,471.959,327.595z"/>
				<path style="fill:#BAB770;" d="M471.755,328.43c-0.66,2.786-1.602,5.466-2.806,8.038c-2.301-1.165-4.728-1.883-7.252-1.505
					c-2.699,0.398-5.048,2.019-7.223,3.67c-4.757,3.611-9.475,7.912-11.116,13.659c-0.874,3.058-0.796,6.291-0.524,9.485
					c-1.34,0.631-2.709,1.194-4.087,1.709c-0.67,0.243-1.34,0.485-2.019,0.699c-0.573-1.641-1.058-3.301-1.32-5.009
					c-0.476-2.99-0.223-6.184,1.272-8.815c2.747-4.825,9.262-7.155,10.611-12.543c0.476-1.903,0.204-3.903-0.116-5.835
					c-1-6.009-2.427-11.941-4.272-17.746c0.641,0.262,1.281,0.544,1.912,0.825c1.068,0.466,2.146,0.922,3.223,1.349
					c0.971,4.019,2.029,8.009,3.145,11.989c0.233,0.835,0.495,1.709,1.126,2.301c0.689,0.651,1.699,0.835,2.631,0.796
					c3.388-0.155,6.135-2.767,9.378-3.767C466.765,326.973,469.454,327.294,471.755,328.43z"/>
				<path style="fill:#9E9B5F;" d="M447.291,337.817c-1.349,5.388-7.863,7.718-10.611,12.543c-1.495,2.631-1.747,5.825-1.272,8.815
					c0.262,1.709,0.748,3.369,1.32,5.009c-4.728,1.563-9.601,2.544-14.543,3.019c-0.796-1.476-1.573-2.971-2.311-4.485
					c2.883-2.388,5.456-5.165,7.621-8.213c1.214-1.709,2.31-3.534,2.971-5.524c0.67-2.039,0.864-4.204,1.058-6.349
					c0.32-3.65,0.631-7.339,0.078-10.96c-0.718-4.64-2.845-8.922-5.466-12.853c1.893-1.864,3.951-3.505,6.33-4.67
					c1.514-0.738,3.165-1.262,4.844-1.281c1.942-0.029,3.786,0.602,5.592,1.369c1.845,5.805,3.272,11.737,4.272,17.746
					C447.495,333.915,447.766,335.914,447.291,337.817z"/>
				<path style="fill:#BAB770;" d="M431.525,342.632c-0.194,2.146-0.388,4.31-1.058,6.349c-0.66,1.99-1.757,3.815-2.971,5.524
					c-2.165,3.048-4.738,5.825-7.621,8.213c-0.563-1.136-1.107-2.291-1.631-3.446c5.456-3.553,8.815-10.019,9.242-16.562
					c0.437-6.708-1.942-13.397-5.806-18.931c1.427-1.699,2.874-3.408,4.456-4.961c2.621,3.932,4.747,8.213,5.466,12.853
					C432.156,335.293,431.845,338.982,431.525,342.632z"/>
				<path style="fill:#9E9B5F;" d="M427.486,342.71c-0.427,6.543-3.786,13.009-9.242,16.562c-1.223-2.66-2.349-5.368-3.378-8.116
					c-1-2.631-1.903-5.291-2.728-7.98c-0.592-1.922-1.146-3.971-0.67-5.922c0.427-1.728,1.602-3.165,2.738-4.524
					c2.359-2.825,4.718-5.65,7.067-8.465c0.136-0.165,0.272-0.32,0.408-0.485C425.545,329.313,427.923,336.002,427.486,342.71z"/>
				<path style="fill:#292524;" d="M472.541,310.411v0.01c-3.738,0.893-7.194,3.009-9.659,5.961
					c-1.097,1.32-2.175,2.903-3.864,3.242c-0.98,0.194-1.98-0.087-2.932-0.379c-2.718-0.835-5.407-1.776-8.048-2.835
					c-1.078-0.427-2.155-0.884-3.223-1.349c-0.631-0.282-1.272-0.563-1.912-0.825c-1.806-0.767-3.65-1.398-5.592-1.369
					c-1.68,0.02-3.33,0.544-4.844,1.281c-2.379,1.165-4.437,2.806-6.33,4.67c-1.582,1.553-3.029,3.262-4.456,4.961
					c-0.136,0.165-0.272,0.32-0.408,0.485c-2.349,2.815-4.708,5.64-7.067,8.465c-1.136,1.359-2.311,2.796-2.738,4.524
					c-0.476,1.951,0.078,4,0.67,5.922c0.825,2.689,1.728,5.349,2.728,7.98c-0.612,0.281-1.214,0.553-1.815,0.835
					c-1.311,0.592-2.679,1.194-4.068,1.534c-0.573-2.709-1.194-5.407-1.845-8.097c-0.592-2.446-1.243-4.951-2.718-6.999
					c-3.437-4.776-10.242-5.708-14.63-9.64c-0.816-0.738-1.553-1.582-2.485-2.165c-0.825-0.514-1.874-0.796-2.796-0.514
					c-0.388-0.583-0.806-1.155-1.223-1.728c1.699-1.815,3.311-3.728,4.456-5.932c1.349-2.602,2-5.495,2.903-8.281
					c0.922-2.854,2.126-5.611,2.835-8.524c1.233-5.058,0.864-10.485-0.932-15.368c2.864-1.485,5.65-3.155,7.766-5.563
					c1.573-1.796,2.718-3.941,4.427-5.602c1.582-1.544,3.582-2.602,5.602-3.505c3.621-1.612,7.592-2.835,11.514-2.233
					c1.815,0.282,3.582,0.942,5.427,0.99c2.951,0.078,5.747-1.485,7.825-3.592c1.233-1.252,2.242-2.689,3.165-4.194
					c3.369-0.34,6.708-0.854,9.98-1.699c9.203,15.106,17.212,30.93,23.95,47.288C472.328,308.916,472.444,309.664,472.541,310.411z"
					/>
				<path style="fill:#9E9B5F;" d="M408.983,353.525c-0.476,0.107-0.961,0.194-1.437,0.223c-0.641-3.349-1.301-6.708-2.311-9.98
					c-0.485-1.553-1.058-3.116-2.107-4.359c-0.874-1.029-2.019-1.786-3.174-2.495c-2.466-1.505-5.029-2.864-7.66-4.048
					c-2.126-0.961-4.388-1.883-6.077-3.446c-0.165-0.437-0.34-0.854-0.534-1.272c-0.34-0.709-0.738-1.379-1.175-2.039
					c0.922-0.282,1.971,0,2.796,0.514c0.932,0.583,1.67,1.427,2.485,2.165c4.388,3.932,11.193,4.864,14.63,9.64
					c1.476,2.048,2.126,4.553,2.718,6.999C407.789,348.117,408.41,350.816,408.983,353.525z"/>
				<path style="fill:#BAB770;" d="M407.546,353.748c-0.709,0.068-1.427,0.029-2.136-0.146c-1.932-0.466-3.475-1.845-4.893-3.281
					c0,0,0,0,0-0.01c-0.204-0.194-0.388-0.398-0.583-0.592c-2.456-2.553-4.902-5.106-7.359-7.669
					c-1.398-1.456-2.815-2.932-3.767-4.718c-1.311-2.447-1.65-5.31-2.592-7.912c1.689,1.563,3.951,2.485,6.077,3.446
					c2.631,1.184,5.194,2.544,7.66,4.048c1.155,0.709,2.301,1.466,3.174,2.495c1.048,1.243,1.621,2.806,2.107,4.359
					C406.245,347.04,406.905,350.399,407.546,353.748z"/>
				<path style="fill:#993331;" d="M422.186,367.203c-8.368,0.806-16.911,0.175-25.212-1.553c0.864-5.174,2.058-10.29,3.543-15.329
					c1.417,1.437,2.961,2.815,4.893,3.281c0.709,0.175,1.427,0.214,2.136,0.146c0.476-0.029,0.961-0.116,1.437-0.223
					c1.388-0.34,2.757-0.942,4.068-1.534c0.602-0.281,1.204-0.553,1.815-0.835c1.029,2.747,2.155,5.456,3.378,8.116
					c0.524,1.155,1.068,2.311,1.631,3.446C420.613,364.233,421.39,365.728,422.186,367.203z"/>
				<path style="fill:#7A2422;" d="M400.517,350.311c0,0.01,0,0.01,0,0.01c-1.485,5.039-2.68,10.155-3.543,15.329
					c-0.738-0.155-1.466-0.311-2.194-0.485c-1.349-1.738-2.757-3.446-4.213-5.097c0.165-5.019-0.874-9.698-3.291-13.543
					c-1.311-2.078-3.009-3.941-3.854-6.252c-0.806-2.194-0.757-4.641-1.621-6.815c-1.058-2.66-3.359-4.65-4.524-7.252
					c-1.544-3.417-0.951-7.349-1.01-11.096c0-0.117,0-0.223-0.01-0.34c2.31,3.155,4.611,6.31,6.922,9.465
					c0.039,0.049,0.068,0.097,0.107,0.146c0.417,0.573,0.835,1.146,1.223,1.728c0.437,0.66,0.835,1.33,1.175,2.039
					c0.194,0.417,0.369,0.835,0.534,1.272c0.942,2.602,1.282,5.466,2.592,7.912c0.951,1.786,2.369,3.262,3.767,4.718
					c2.456,2.563,4.903,5.116,7.359,7.669C400.129,349.914,400.313,350.117,400.517,350.311z"/>
				<path style="fill:#BAB770;" d="M438.272,262.58c-0.922,1.505-1.932,2.942-3.165,4.194c-2.078,2.107-4.874,3.67-7.825,3.592
					c-1.845-0.049-3.611-0.709-5.427-0.99c-3.922-0.602-7.893,0.621-11.514,2.233c-2.019,0.903-4.019,1.961-5.602,3.505
					c-1.709,1.66-2.854,3.806-4.427,5.602c-2.116,2.408-4.903,4.077-7.766,5.563c-0.922-2.543-2.233-4.941-3.903-7.068
					c-3.631-4.65-8.757-7.999-12.193-12.785c-0.68-0.951-1.301-1.961-1.98-2.912c4.67-0.777,9.601,0.058,14.397,0.437
					c5.708,0.456,11.456,0.252,17.183,0.048l19.688-0.699C429.913,263.153,434.117,262.997,438.272,262.58z"/>
				<path style="fill:#9E9B5F;" d="M393.479,301.645c-0.709,2.913-1.912,5.67-2.835,8.524c-0.903,2.786-1.553,5.679-2.903,8.281
					c-1.145,2.204-2.757,4.116-4.456,5.932c-0.039-0.048-0.068-0.097-0.107-0.146c-2.31-3.155-4.611-6.31-6.922-9.465
					c-0.107-3.66-1.272-7.737-4.573-9.252c0.981-3.33,0.641-7.427-0.631-11.038c-1.281-3.611-3.417-6.844-5.543-10.028
					c-1.99-2.98-3.835-6.068-5.961-8.951c-2.874-3.893-4.504-8.252-5.068-12.756c-0.262-2.058-0.349-4.126-0.34-6.194
					c3.029-0.524,6.184,0.185,9.213,0.884c3.369,0.786,6.922,1.67,9.426,4.058c0.631,0.612,1.184,1.301,1.689,2.019
					c0.68,0.951,1.301,1.961,1.98,2.912c3.437,4.786,8.563,8.135,12.193,12.785c1.67,2.126,2.98,4.524,3.903,7.068
					C394.343,291.16,394.712,296.587,393.479,301.645z"/>
				<path style="fill:#7A2422;" d="M448.252,260.881c-3.272,0.845-6.611,1.359-9.98,1.699c-4.155,0.418-8.359,0.573-12.533,0.718
					l-19.688,0.699c-5.728,0.204-11.475,0.408-17.183-0.048c-4.796-0.379-9.727-1.214-14.397-0.437
					c-0.505-0.718-1.058-1.408-1.689-2.019c-2.505-2.388-6.058-3.272-9.426-4.058c-3.029-0.699-6.184-1.408-9.213-0.884
					c0.01-2.475,0.155-4.951,0.301-7.427c0.175-3.097,0.359-6.223,1.272-9.194c0.68-2.204,1.738-4.271,2.864-6.281
					c2.087-3.718,4.408-7.31,6.941-10.737c1.34-1.806,2.786-3.611,4.738-4.728c1.447-0.835,3.233-1.349,4.495-2.379
					c17.824,8.98,35.638,17.805,53.336,26.522c8.145,4.019,15.057,10.203,19.804,17.96
					C448.009,260.483,448.135,260.687,448.252,260.881z"/>
				<path style="fill:#9E9B5F;" d="M154.36,360.709c-0.33-0.087-0.67-0.165-1-0.252c-5.048-1.301-10.038-2.815-14.96-4.563
					c2.379-5.145,3.883-10.698,4.417-16.339c0.146-1.553,0.233-3.155,0.932-4.534c0.631-1.233,1.689-2.184,2.718-3.107
					c1.068-0.942,2.136-1.893,3.204-2.844c0.33,1.757,0.66,3.514,0.98,5.281C152.263,343.089,153.7,351.865,154.36,360.709z"/>
				<path style="fill:#292524;" d="M206.376,326.158c-0.01,1.019-0.039,2.039-0.068,3.058c-0.388,11.252-2.301,22.484-5.776,33.182
					c-15.484,1.738-31.046,2.029-46.171-1.689c-0.66-8.844-2.097-17.62-3.709-26.357c6.679-0.252,13.358,0.903,19.872,2.417
					c2.679,0.621,5.417,1.311,8.135,0.893c1.699-0.262,3.301-0.951,4.883-1.641C191.163,332.74,198.765,329.439,206.376,326.158z"/>
				<path style="fill:#7A2422;" d="M206.376,326.158c-7.611,3.281-15.212,6.582-22.833,9.863c-1.583,0.689-3.184,1.379-4.883,1.641
					c-2.718,0.417-5.456-0.272-8.135-0.893c-6.514-1.514-13.193-2.67-19.872-2.417c-0.32-1.767-0.65-3.524-0.98-5.281
					c-0.117-0.641-0.243-1.272-0.359-1.903c-0.485-2.544-0.961-5.097-1.583-7.611c2.155-7.174,6.019-13.824,11.203-19.241
					c1.893-1.98,4.097-4.087,4.204-6.825c0.058-1.466-0.495-2.796-1.291-4.058c-0.67-1.078-1.505-2.097-2.272-3.097
					c-3.602-4.737-5.922-10.339-7.514-16.076c-0.786-2.825-1.408-5.699-1.718-8.611c-0.777-7.203,0.408-14.591,3.311-21.231
					c-0.214,5.058,0.33,10.116,1.854,14.951c2.767,8.795,8.533,16.3,14.436,23.387c4.66,5.602,9.592,11.174,15.824,14.97
					c5.708,3.495,12.747,5.33,19.203,3.806c0.107,1.524,0.223,3.039,0.33,4.563C205.881,310.101,206.463,318.129,206.376,326.158z"
					/>
				<path style="fill:#292524;" d="M163.136,293.49c-0.107,2.738-2.311,4.844-4.204,6.825c-5.184,5.417-9.048,12.067-11.203,19.241
					c-0.408-1.66-0.883-3.31-1.466-4.922c-0.155-0.456-0.32-0.913-0.505-1.369c-1.233-3.097-2.864-6.019-4.262-9.048
					c-2.699-5.893-4.466-12.164-6.058-18.455c1.825-0.116,3.631,0.019,5.398,0.582c2.747,0.883,5.077,2.738,7.747,3.844
					c4.223,1.767,9.262,1.466,13.261-0.757C162.641,290.694,163.194,292.024,163.136,293.49z"/>
				<path style="fill:#9E9B5F;" d="M143.099,327.061c-2.262,2.204-4.514,4.398-6.776,6.602c-0.883,0.864-1.777,1.738-2.32,2.844
					c-0.612,1.223-0.738,2.621-0.883,3.971c-0.476,4.223-1.291,8.417-2.437,12.504c-14.222-5.737-27.726-13.29-39.958-22.474
					C106.062,321.061,125.944,319.275,143.099,327.061z"/>
				<path style="fill:#9E9B5F;" d="M103.266,311.149c-2.262,3.854-5.844,6.805-9.592,9.271c-2.883,1.903-5.922,3.582-8.815,5.485
					c-12.611-10.378-23.659-22.571-32.454-36.366c-4.563-7.155-8.475-14.747-11.689-22.629c4.718,0.515,9.475,0.709,14.222,0.563
					c0.398-0.02,0.815-0.029,1.194-0.175c0.437-0.175,0.786-0.505,1.126-0.825l4.165-3.971c1.107-1.058,2.223-2.126,3.087-3.388
					c0.437,1.32,0.903,2.631,1.437,3.893c0.272,0.641,0.66,1.214,0.942,1.845c0.379,0.845,0.612,1.738,1.029,2.563
					c0.67,1.32,1.252,2.689,2.058,3.951c0.689,1.078,1.165,2.359,1.922,3.378c1.446,1.951,2.679,4.048,4.553,5.621
					c0.582,0.485,1.039,1.078,1.699,1.476c0.524,0.32,1.029,0.573,1.485,0.99c0.883,0.806,1.845,1.505,2.738,2.301
					c1.835,1.621,3.873,3.33,5.33,5.31c1.835,2.505,3.543,5.174,4.99,7.931c1.446,2.767,3.107,5.718,5.145,8.087
					C99.461,308.363,101.024,310.091,103.266,311.149z"/>
				<path style="fill:#BAB770;" d="M149.671,329.07c-1.068,0.951-2.136,1.903-3.204,2.844c-1.029,0.922-2.087,1.874-2.718,3.107
					c-0.699,1.379-0.786,2.98-0.932,4.534c-0.534,5.64-2.039,11.193-4.417,16.339c-2.592-0.903-5.165-1.874-7.718-2.912
					c1.146-4.087,1.961-8.281,2.437-12.504c0.146-1.349,0.272-2.747,0.883-3.971c0.544-1.107,1.437-1.98,2.32-2.844
					c2.262-2.204,4.514-4.398,6.776-6.602c-17.154-7.786-37.036-6-52.375,3.446c-1.99-1.495-3.951-3.029-5.864-4.602
					c2.893-1.903,5.932-3.582,8.815-5.485c3.747-2.466,7.33-5.417,9.592-9.271c-2.243-1.058-3.806-2.786-5.427-4.689
					c-2.039-2.369-3.699-5.32-5.145-8.087c-1.447-2.757-3.155-5.427-4.99-7.931c-1.456-1.98-3.495-3.689-5.33-5.31
					c-0.893-0.796-1.854-1.495-2.738-2.301c-0.456-0.417-0.961-0.67-1.485-0.99c-0.66-0.398-1.116-0.99-1.699-1.476
					c-1.874-1.573-3.107-3.67-4.553-5.621c-0.757-1.019-1.233-2.301-1.922-3.378c-0.806-1.262-1.388-2.631-2.058-3.951
					c-0.417-0.825-0.65-1.718-1.029-2.563c-0.282-0.631-0.67-1.204-0.942-1.845c-0.534-1.262-1-2.573-1.437-3.893v-0.01
					c0.243-0.359,0.456-0.728,0.65-1.116c0.854-1.767,1.019-4.009-0.301-5.757c1.786-0.777,3.359-1.883,4.737-3.213
					c4.281,6.417,5.359,14.688,9.766,21.076c6.524,9.436,19.261,13.271,25.26,23.066c1.146,1.874,2.039,3.961,3.573,5.543
					c1.777,1.845,4.252,2.825,6.64,3.747l31.425,12.184c0.582,1.612,1.058,3.262,1.466,4.922c0.621,2.514,1.097,5.068,1.583,7.611
					C149.428,327.798,149.554,328.43,149.671,329.07z"/>
				<path style="fill:#9E9B5F;" d="M146.263,314.634l-31.425-12.184c-2.388-0.922-4.864-1.903-6.64-3.747
					c-1.534-1.582-2.427-3.67-3.573-5.543c-6-9.795-18.737-13.63-25.26-23.066c-4.407-6.388-5.485-14.659-9.766-21.076
					c0.951-0.913,1.806-1.942,2.563-3.039c1.505,1.476,3.398,2.66,5.262,3.65c2.223,1.175,4.582,2.242,6.64,3.67
					c1.175,0.796,2.242,1.718,3.136,2.844c1.728,2.165,2.602,4.854,3.631,7.417c2.679,6.66,6.66,12.912,12.203,17.475
					c5.534,4.563,12.737,7.32,19.892,6.737c4.174-0.35,8.398-1.777,12.514-2.01c1.592,6.291,3.359,12.562,6.058,18.455
					c1.398,3.029,3.029,5.951,4.262,9.048C145.943,313.722,146.108,314.178,146.263,314.634z"/>
				<path style="fill:#993331;" d="M161.845,289.432c-4,2.223-9.038,2.524-13.261,0.757c-2.67-1.107-5-2.961-7.747-3.844
					c-1.767-0.563-3.572-0.699-5.398-0.582c-4.116,0.233-8.339,1.66-12.514,2.01c-7.155,0.582-14.358-2.175-19.892-6.737
					c-5.543-4.563-9.524-10.815-12.203-17.475c-1.029-2.563-1.903-5.252-3.631-7.417c-0.893-1.126-1.961-2.048-3.136-2.844
					c6.067-0.427,12.271-1.446,16.62-5.553c4.407-4.155,5.922-10.65,10.087-15.057c1.68-1.777,3.767-3.165,6.048-4.038
					c3.718-1.417,7.805-1.427,11.669-2.388c3.573-0.883,6.883-2.553,10.261-4.038c1.485-0.65,2.98-1.262,4.524-1.767
					c0.408-0.126,0.825-0.252,1.243-0.369c0.631-0.175,1.262-0.32,1.903-0.447c3.893-0.757,7.97-0.621,11.815,0.398
					c-0.243,0.612-0.485,1.233-0.709,1.854c-2.175,5.922-3.611,12.222-3.874,18.523c-2.903,6.64-4.087,14.028-3.311,21.231
					c0.311,2.913,0.932,5.786,1.718,8.611c1.592,5.737,3.912,11.339,7.514,16.076C160.34,287.335,161.175,288.355,161.845,289.432z"
					/>
				<path style="fill:#7A2422;" d="M183.717,120.6c-2.311,4.029-4.708,7.999-7.203,11.912c-4.854,7.621-10.145,15.242-12.222,24.037
					c-0.35,1.476-0.592,2.971-0.747,4.475c-2.359-0.058-4.718-0.214-7.068-0.456c-0.379-0.039-0.757-0.078-1.136-0.117
					c-0.359-0.048-0.718-0.097-1.068-0.146c-1.786-0.223-3.563-0.505-5.33-0.845c-1.476-0.282-2.99-0.602-4.466-0.359
					c-0.175,0.029-0.34,0.058-0.505,0.107c-0.136-0.136-0.272-0.282-0.398-0.417c-1.262-1.378-2.485-2.922-4.233-3.573
					c-1.573-0.592-3.311-0.359-4.971-0.582c-1.476-0.194-2.883-0.757-4.213-1.427c-2.427-1.213-4.67-2.776-6.65-4.631
					c-1.573-1.476-2.98-3.146-4.689-4.475c-0.709-0.553-1.515-1.058-2.408-1.097c-1-0.039-1.922,0.495-2.806,0.961
					c-2.611,1.349-5.514,2.107-8.456,2.223c-0.417-1.641-0.825-3.281-1.214-4.922c-0.796-3.33-1.544-6.699-1.679-10.116
					c-0.097-2.612,0.184-5.31,1.417-7.611c0.845-1.573,2.097-2.893,3.495-4c6.038-4.786,14.853-5.883,19.523-12.019
					c1.301-1.699,2.175-3.679,3.466-5.388c0.612-0.816,1.311-1.563,2.097-2.204c9.757-0.98,19.639-0.466,29.202,1.709
					c5.136,1.165,10.077,2.398,14.844,3.699c0.252,3.262-0.806,6.66-1.66,9.893c-0.612,2.34-1,5.145,0.689,6.864
					c0.214,0.223,0.466,0.417,0.757,0.476c0.311,0.068,0.621-0.01,0.912-0.097C179.232,121.852,181.455,120.988,183.717,120.6z"/>
				<path style="fill:#BAB770;" d="M169.145,200.128c-2.165,3.136-4.145,6.271-5.932,9.465c-2.446-5.844-3.194-12.397-2.058-18.64
					c0.913-5.029,3-9.805,4.155-14.776c0.971,2.864,2.281,5.601,3.903,8.145C172.32,189.177,172.427,195.39,169.145,200.128z"/>
				<path style="fill:#9E9B5F;" d="M161.156,190.954c-1.136,6.242-0.388,12.795,2.058,18.64c-1.893,3.407-3.573,6.873-4.98,10.446
					c-3.844-1.019-7.922-1.155-11.815-0.398c1.903-10.465,4.242-20.833,7.029-31.095c1.049-3.864,2.184-7.776,4.359-11.135
					c1.631-2.505,3.786-4.631,6.155-6.485c0.33,1.777,0.777,3.534,1.35,5.242v0.01C164.155,181.149,162.068,185.925,161.156,190.954
					z"/>
				<path style="fill:#BAB770;" d="M163.961,170.926c-2.369,1.854-4.524,3.98-6.155,6.485c-2.175,3.359-3.31,7.271-4.359,11.135
					c-2.786,10.261-5.126,20.63-7.029,31.095c-0.641,0.126-1.272,0.272-1.903,0.447c-0.418,0.116-0.835,0.243-1.243,0.369
					c0.524-3.087,0.505-6.233,0.311-9.397v-0.01c4.398-6.805,6.533-14.863,8.572-22.727c0.825-3.155,1.641-6.301,2.262-9.504
					c1.175-6.009,1.641-12.135,2.058-18.251c2.349,0.243,4.709,0.398,7.068,0.456C163.223,164.325,163.379,167.664,163.961,170.926z
					"/>
				<path style="fill:#9E9B5F;" d="M156.476,160.568c-0.417,6.116-0.883,12.242-2.058,18.251c-0.621,3.204-1.437,6.349-2.262,9.504
					c-2.039,7.863-4.174,15.921-8.572,22.727c-0.058-0.893-0.126-1.786-0.204-2.68c2.563-4.776,3.903-10.213,3.844-15.64
					c-0.029-2.942-0.437-6.009,0.718-8.708c0.534-1.262,1.378-2.349,2.116-3.505c3.776-5.883,4.66-13.077,5.281-20.066
					C155.719,160.49,156.098,160.529,156.476,160.568z"/>
				<path style="fill:#BAB770;" d="M155.34,160.451c-0.621,6.99-1.505,14.184-5.281,20.066c-0.738,1.155-1.582,2.243-2.116,3.505
					c-1.155,2.699-0.748,5.767-0.718,8.708c0.058,5.427-1.281,10.863-3.844,15.64c-0.563-6.533-1.514-13.115,0.204-19.367
					c0.854-3.116,2.34-6.009,3.747-8.912c3.077-6.31,5.883-12.863,6.941-19.785C154.622,160.354,154.981,160.403,155.34,160.451z"/>
				<path style="fill:#9E9B5F;" d="M143.584,189.003c-1.718,6.252-0.767,12.834-0.204,19.367c0.078,0.893,0.146,1.786,0.204,2.68
					v0.01c0.194,3.165,0.214,6.31-0.311,9.397c-1.544,0.505-3.039,1.116-4.524,1.767c-1.019-4.048-2.223-8.058-4.339-11.63
					c-1.252-2.107-2.806-4.039-3.903-6.233c-1.437-2.864-2.068-6.106-3.747-8.844c-1.204-1.971-2.912-3.602-4.068-5.602
					c-1.359-2.369-1.874-5.213-1.417-7.902c0.223-1.32,0.592-2.893-0.379-3.815c-0.485-0.466-1.184-0.612-1.835-0.757
					c-7.621-1.728-14.494-6.485-18.824-12.97c2.757-1.66,5.679-3.048,8.698-4.136c0.281,0.748,0.631,1.476,1.107,2.126
					c1.262,1.747,3.243,2.815,5.223,3.67c3.291,1.427,6.767,2.427,10.32,2.98c2.262,0.34,4.669,0.495,6.786-0.388
					c4.679-1.951,6.776-8.349,11.601-9.514c0.165-0.049,0.33-0.078,0.505-0.107c1.476-0.243,2.99,0.078,4.466,0.359
					c1.767,0.34,3.544,0.621,5.33,0.845c-1.058,6.922-3.864,13.475-6.941,19.785C145.924,182.993,144.438,185.886,143.584,189.003z"
					/>
				<path style="fill:#7A2422;" d="M138.749,222.223c-3.378,1.485-6.689,3.155-10.261,4.038c-3.864,0.961-7.951,0.971-11.669,2.388
					c-2.281,0.874-4.369,2.262-6.048,4.038c-4.165,4.408-5.679,10.902-10.087,15.057c-4.349,4.107-10.553,5.126-16.62,5.553
					c-2.058-1.427-4.417-2.495-6.64-3.67c-1.864-0.99-3.757-2.175-5.262-3.65c1.66-2.369,2.883-5.097,3.708-7.854
					c1.747-5.903,1.98-12.125,2.864-18.222c0.408-2.815,0.961-5.65,1.466-8.475c0.544-3.039,1.029-6.068,1.214-9.096
					c0.078-1.281,0.097-2.563,0.049-3.844c-0.049-1.534-0.214-3.068-0.505-4.592c-0.515-2.641-1.427-5.359-0.757-7.98
					c0.447-1.747,1.563-3.233,2.65-4.67c1.233-1.641,2.476-3.281,3.776-4.864c0.883-1.087,1.796-2.145,2.747-3.165
					c3.175-3.408,6.854-6.359,10.863-8.747c4.33,6.485,11.203,11.242,18.824,12.97c0.65,0.146,1.349,0.291,1.835,0.757
					c0.971,0.922,0.602,2.495,0.379,3.815c-0.456,2.689,0.058,5.534,1.417,7.902c1.155,2,2.864,3.631,4.068,5.602
					c1.679,2.738,2.31,5.98,3.747,8.844c1.097,2.194,2.65,4.126,3.903,6.233C136.526,214.166,137.73,218.175,138.749,222.223z"/>
				<path style="fill:#993331;" d="M80.2,211.428c-0.505,2.825-1.058,5.66-1.466,8.475c-0.883,6.097-1.116,12.32-2.864,18.222
					c-0.825,2.757-2.048,5.485-3.708,7.854c-0.757,1.097-1.612,2.126-2.563,3.039c-1.378,1.33-2.951,2.437-4.737,3.213
					c1.32,1.747,1.155,3.99,0.301,5.757c-0.194,0.388-0.408,0.757-0.65,1.116v0.01c-0.864,1.262-1.98,2.33-3.087,3.388l-4.165,3.971
					c-0.34,0.32-0.689,0.65-1.126,0.825c-0.379,0.146-0.796,0.155-1.194,0.175c-4.747,0.146-9.504-0.048-14.222-0.563
					c-0.301-0.728-0.602-1.456-0.883-2.194c-4.922-24.154-7.776-48.637-2.98-72.636c4.194,1.087,8.407,2.291,12.077,4.563
					c2,1.243,3.806,2.777,5.689,4.184C62.075,206.428,70.968,210.108,80.2,211.428z"/>
				<path style="fill:#9E9B5F;" d="M81.414,202.332c-0.184,3.029-0.67,6.058-1.214,9.096c-9.232-1.32-18.125-5-25.581-10.601
					c-1.883-1.408-3.689-2.941-5.689-4.184c-3.67-2.272-7.883-3.475-12.077-4.563c0.33-1.689,0.699-3.378,1.116-5.058
					c0.398-1.631,0.845-3.252,1.32-4.864c4.66,1.301,9.174,3.243,12.902,6.301c1.971,1.612,3.689,3.514,5.621,5.184
					C64.269,199.235,72.851,201.943,81.414,202.332z"/>
				<path style="fill:#BAB770;" d="M81.414,202.332c-8.562-0.388-17.144-3.097-23.6-8.689c-1.932-1.67-3.65-3.572-5.621-5.184
					c-3.728-3.058-8.242-5-12.902-6.301c0.524-1.738,1.087-3.475,1.699-5.203c1.534,0.485,3.048,1.019,4.553,1.592
					c1.728,0.66,3.437,1.379,4.961,2.417c4.009,2.767,6.223,7.465,9.805,10.757c3,2.757,6.864,4.437,10.825,5.388
					c3.388,0.815,6.864,1.136,10.329,1.379C81.511,199.769,81.491,201.05,81.414,202.332z"/>
				<path style="fill:#993331;" d="M80.2,185.915c-0.67,2.621,0.243,5.339,0.757,7.98c0.291,1.524,0.456,3.058,0.505,4.592
					c-3.466-0.243-6.941-0.563-10.329-1.379c-3.961-0.951-7.825-2.631-10.825-5.388c-3.582-3.291-5.796-7.99-9.805-10.757
					c-1.524-1.039-3.233-1.757-4.961-2.417c-1.505-0.573-3.019-1.107-4.553-1.592c4.31-12.223,10.844-23.989,18.931-34.473
					c2.058,2.068,3.602,4.621,5.058,7.164c4.543,7.961,8.465,16.281,13.261,24.095c0.485,0.786,1,1.582,1.767,2.087
					c1.107,0.719,2.514,0.699,3.835,0.65c0.932-0.039,1.854-0.068,2.786-0.097c-1.301,1.582-2.544,3.223-3.776,4.864
					C81.763,182.683,80.647,184.168,80.2,185.915z"/>
				<path style="fill:#993331;" d="M143.972,159.208c-4.825,1.165-6.922,7.563-11.601,9.514c-2.117,0.883-4.524,0.728-6.786,0.388
					c-3.553-0.553-7.029-1.553-10.32-2.98c-1.98-0.854-3.961-1.922-5.223-3.67c-0.476-0.65-0.825-1.378-1.107-2.126
					c-0.33-0.864-0.563-1.757-0.806-2.65c-1.01-3.825-2.019-7.65-2.98-11.494c2.942-0.117,5.844-0.874,8.456-2.223
					c0.883-0.466,1.806-1,2.806-0.961c0.893,0.039,1.699,0.544,2.408,1.097c1.709,1.33,3.116,3,4.689,4.475
					c1.98,1.854,4.223,3.417,6.65,4.631c1.33,0.67,2.738,1.233,4.213,1.427c1.66,0.223,3.398-0.01,4.971,0.582
					c1.747,0.65,2.971,2.194,4.233,3.573C143.7,158.927,143.836,159.073,143.972,159.208z"/>
				<path style="fill:#292524;" d="M189.882,109.348c-1.971,3.796-4.029,7.543-6.165,11.252c-2.262,0.388-4.485,1.252-6.718,1.874
					c-0.291,0.087-0.602,0.165-0.912,0.097c-0.291-0.058-0.544-0.252-0.757-0.476c-1.689-1.718-1.301-4.524-0.689-6.864
					c0.854-3.233,1.913-6.631,1.66-9.893C180.979,106.61,185.503,107.95,189.882,109.348z"/>
				<path style="fill:#292524;" d="M132.255,99.931c-0.786,0.641-1.485,1.388-2.097,2.204c-1.291,1.709-2.165,3.689-3.466,5.388
					c-4.67,6.136-13.485,7.233-19.523,12.019c-1.398,1.107-2.65,2.427-3.495,4c-1.233,2.301-1.515,5-1.417,7.611
					c0.136,3.417,0.883,6.786,1.679,10.116c0.388,1.641,0.796,3.281,1.214,4.922c0.961,3.844,1.971,7.669,2.98,11.494
					c0.243,0.893,0.476,1.786,0.806,2.65c-3.019,1.087-5.941,2.476-8.698,4.136c-4.009,2.388-7.689,5.339-10.863,8.747
					c-0.951,1.019-1.864,2.077-2.747,3.165c-0.932,0.029-1.854,0.058-2.786,0.097c-1.32,0.049-2.728,0.068-3.835-0.65
					c-0.767-0.505-1.282-1.301-1.767-2.087c-4.796-7.815-8.718-16.135-13.261-24.095c-1.456-2.544-3-5.097-5.058-7.164
					c6.999-9.087,15.164-17.212,24.037-23.833C97.985,108.183,114.916,101.679,132.255,99.931z"/>
				<path style="fill:#292524;" d="M161.22,138.051c-3.277,3.839-7.047,7.258-11.187,10.145c-2.546,1.776-5.385,3.4-8.488,3.487
					c-0.683,0.02-1.583-0.254-1.56-0.938c0.01-0.298,0.215-0.554,0.435-0.755c0.893-0.813,2.135-1.081,3.255-1.53
					c1.121-0.448,2.271-1.264,2.742-2.658c-2.742,0.084-5.3-1.488-7.196-3.472c-1.896-1.983-3.289-4.383-4.945-6.57
					c-1.655-2.187-3.695-4.241-6.304-5.089c2.68,0.179,4.771,2.292,6.59,4.27c-1.962-3.236-4.837-5.91-8.205-7.633
					c2.582-0.57,5.139,0.985,7.153,2.698c1.665,1.415,3.195,2.99,4.496,4.479c-1.877-3.165-4.242-6.037-6.988-8.486
					c5.446,1.881,9.432,6.508,13.584,10.928c-1.666-1.588-1.976-4.077-2.488-6.321c-0.885-3.871-2.66-7.535-5.107-10.808
					c1.781,1.547,3.599,3.142,4.72,5.217c1.28,2.368,1.537,5.143,2.45,7.674c0.972,2.692,2.708,5.104,4.956,6.472
					c-2.647-2.613-4.194-6.246-4.523-9.951c-0.33-3.706,0.513-7.468,2.334-10.789c-0.368,2.889-0.737,5.791-0.663,8.701
					c0.074,2.911,0.609,5.855,1.872,8.225c1.933-5.611,1.584-11.719,1.187-17.641c2.21,5.549,1.898,11.78,0.899,17.669
					c1.374-1.834,2.29-4.007,2.645-6.27c0.492-3.147-0.091-6.373,0.239-9.541c1.34,2.679,1.742,5.78,1.364,8.752
					c-0.248,1.963-0.824,3.881-0.931,5.857c-0.107,1.975,0.343,4.115,1.886,5.562c1.431-1.106,2.504-2.598,3.601-4.036
					c0.344-0.451,0.703-0.908,1.191-1.195c0.456-0.268,1.091-0.346,1.48,0.013c0.172,0.158,0.272,0.38,0.331,0.605
					C162.284,136.028,162.045,137.084,161.22,138.051z"/>
			</g>
			<path style="fill:#FFF6ED;" d="M472.202,308.169c-6.825-16.572-14.96-32.6-24.309-47.88c-4.747-7.757-11.659-13.941-19.804-17.96
				c-17.698-8.718-35.512-17.542-53.336-26.522c-7.815-3.941-15.64-7.922-23.455-11.921c-3.699-1.912-7.407-3.815-11.106-5.737
				c-6.436-3.34-11.98-8.116-16.445-13.834c-11.106-14.232-27.299-23.387-42.803-32.085c-1.514-0.845-3.01-1.689-4.495-2.524
				c-29.163-16.358-54.045-30.008-86.567-40.356c-8.834-2.825-18.232-5.388-28.425-7.708c-26.551-6.029-55.579,0.66-77.499,17.008
				c-21.911,16.339-39.453,41.822-45.987,68.374c-6.301,25.61-3.408,51.841,1.864,77.694c-11.921-30.668-13.349-65.471-1.65-96.149
				c14.989-39.347,52.385-70.102,94.314-74.034c20.018-1.883,39.706,1.99,58.928,8.252c2.214,0.718,4.427,1.476,6.621,2.262
				c5.64,1.99,11.242,4.165,16.785,6.417c0,0,0,0,0.01,0c6.233,2.543,12.397,5.194,18.513,7.834c7.388,3.194,14.824,6.3,22.28,9.397
				c0.01,0,0.01,0.01,0.01,0.01c34.434,14.329,69.15,28.513,99.449,50.006c3.806,2.699,7.466,5.31,10.999,7.873
				c30.328,21.93,51.744,39.589,81.402,69.247c7.796,7.796,18.668,31.512,21.93,41.298
				C470.619,300.723,471.58,304.422,472.202,308.169z"/>
			<g>
				<path style="fill:#FFF6ED;" d="M363.976,129.89c-19.474-21.028-45.812-35.677-74.004-40.91
					c-31.241-5.786-64.491,0.049-91.926,16.067c-2.194-0.786-4.407-1.544-6.621-2.262c4.136-9.155,11.281-16.863,19.581-22.571
					c9.223-6.339,19.843-10.378,30.648-13.281c18.474-4.961,38.046-6.708,56.792-2.951c18.756,3.757,36.638,13.31,48.628,28.212
					C355.802,103.028,361.103,116.212,363.976,129.89z"/>
				<path style="fill:#993331;" d="M366.724,152.617c-17.203-20.659-41.735-34.842-67.859-41.482
					c-27.406-6.97-56.443-5.971-84.023,0.33c-0.01,0-0.01,0-0.01,0c-5.543-2.252-11.145-4.427-16.785-6.417
					c27.435-16.018,60.685-21.853,91.926-16.067c28.192,5.233,54.53,19.882,74.004,40.91c0.709,3.369,1.272,6.776,1.699,10.174
					C366.199,144.239,366.529,148.423,366.724,152.617z"/>
				<path style="fill:#FFF6ED;" d="M366.51,178.634c-30.522-27.658-69.917-45.414-110.866-49.928c0,0,0-0.01-0.01-0.01
					c-7.456-3.097-14.892-6.203-22.28-9.397c-6.116-2.641-12.281-5.291-18.513-7.834c27.581-6.301,56.617-7.3,84.023-0.33
					c26.124,6.64,50.657,20.824,67.859,41.482C367.131,161.276,366.927,169.955,366.51,178.634z"/>
				<path style="fill:#993331;" d="M366.51,178.634v0.01c-0.117,2.65-0.262,5.301-0.418,7.941
					c-3.534-2.563-7.194-5.174-10.999-7.873c-30.299-21.494-65.015-35.677-99.449-50.006
					C296.593,133.22,335.988,150.976,366.51,178.634z"/>
				<path style="fill:#FFE6CC;" d="M339.639,128.82c1.164,10.424,2.154,20.88,2.988,31.351c8.419,5.531,16.418,11.699,23.883,18.463
					c0.417-8.679,0.621-17.358,0.213-26.018C359.002,143.344,349.795,135.387,339.639,128.82z"/>
				<path style="fill:#FFE6CC;" d="M363.976,129.89c-1.052-5.006-2.432-9.943-4.183-14.725c-2.188-2.498-4.833-4.721-6.148-7.769
					c-1.001-2.321-1.201-5.061-2.864-6.965c-1.56-1.785-4.054-2.413-5.94-3.85c-2.223-1.694-3.429-4.358-4.873-6.751
					c-1.445-2.392-3.486-4.771-6.256-5.145c1.194,7.59,2.299,15.208,3.319,22.847C346.929,113.784,356.025,121.305,363.976,129.89z"
					/>
				<path style="fill:#7A2422;" d="M366.51,178.634c-7.465-6.764-15.464-12.932-23.883-18.463c0.285,3.579,0.549,7.159,0.796,10.741
					c3.954,2.494,7.848,5.088,11.67,7.8c3.806,2.699,7.466,5.31,10.999,7.873c0.155-2.641,0.301-5.291,0.418-7.941V178.634z"/>
				<path style="fill:#7A2422;" d="M363.976,129.89c-7.951-8.585-17.048-16.106-26.946-22.358
					c0.945,7.079,1.815,14.177,2.609,21.288c10.156,6.567,19.363,14.523,27.085,23.796c-0.194-4.194-0.524-8.378-1.048-12.553
					C365.248,136.666,364.685,133.259,363.976,129.89z"/>
			</g>
			<path style="fill:#9E9B5F;" d="M387.178,349.525c-0.311-0.612-0.641-1.214-1.048-1.767c-0.835-1.146-1.951-2.107-2.456-3.272
				c-0.136,2.252-0.175,4.514-0.136,6.767c0.029,1.544,0.107,3.107,0.476,4.602c0.252,1.019,0.65,2.01,1.291,2.845
				c1.029,1.32,2.582,2.107,3.563,2.786C389.586,357.457,388.984,353.204,387.178,349.525z"/>
		</g>
		<g>
			<path style="fill:#292524;" d="M276.448,149.704c-7.038,1.078-14.067,2.145-21.115,3.213c-5.572,0.854-11.31,1.757-16.096,4.738
				c-6.669,4.145-10.397,11.582-14.096,18.513c-3.699,6.922-8.096,13.019-15.766,16.436c-2.524,1.126-4.708,3.252-5.679,5.835
				c-0.67,1.777-0.583,3.728-0.641,5.621c-0.107,3.466-0.786,7.019-2.747,9.873c-1.359,1.961-3.252,3.505-4.553,5.514
				c-1.592,2.466-2.165,5.456-3.476,8.096c-1.378,2.757-3.524,5.038-5.708,7.203c-2.485,2.456-5.174,4.971-6.194,8.31
				c-0.534,1.728-0.573,3.582-0.417,5.388c0.913,10.223,7.99,18.843,15.776,25.523c1.049,0.903,2.155,1.806,3.485,2.184
				c1.311,0.369,2.883,0.116,4.165-0.34c0.534,7.242,1.049,14.484,1.582,21.717c-6.456,1.524-13.494-0.311-19.203-3.806
				c-6.233-3.796-11.164-9.368-15.824-14.97c-5.902-7.087-11.669-14.591-14.436-23.387c-3.417-10.854-1.903-22.785,2.019-33.473
				c2.796-7.621,6.747-14.727,11.62-21.766c3.281-4.738,3.175-10.951,0.068-15.805c-5.203-8.126-7.155-18.368-4.922-27.775
				c2.077-8.795,7.368-16.416,12.222-24.037c4.786-7.524,9.252-15.251,13.368-23.163
				C222.404,119.697,247.285,133.346,276.448,149.704z"/>
			<g>
				<g>
					<path style="fill:#D26944;" d="M369.073,500h-257.03c2.233-15.475,12.523-29.076,22.387-41.56
						c11.319-14.319,22.649-28.648,33.968-42.968c9.698-12.271,19.484-24.668,26.338-38.725
						c7.203-14.766,11.009-31.114,11.572-47.531c0.301-9.048-0.349-18.096-1.01-27.124c-0.641-8.757-1.272-17.513-1.913-26.28
						c0.02,0,0.049-0.01,0.068-0.019c1.679,11.999,3.718,24.794,11.912,33.726c3.301,3.611,7.427,6.359,11.504,9.077
						c11.727,7.854,23.445,15.911,36.425,21.474c7.038,3.01,14.513,5.262,22.095,6.223c4.728,5.893,8.834,12.368,10.747,19.639
						c1.971,7.495,1.495,15.426,0.223,23.076c-1.514,9.155-4.165,18.115-7.854,26.629c-1.048,2.417-2.204,4.932-1.951,7.553
						c0.155,1.641,0.854,3.184,1.582,4.67c4.116,8.427,10.213,17.028,19.368,19.028c6.349,1.378,13.261-0.689,19.3,1.699
						c5.165,2.029,8.99,7.097,14.465,8c1.942,0.32,4.01,0.097,5.805,0.893c1.854,0.825,3.087,2.602,4.194,4.31
						C358.928,473.623,364.937,486.525,369.073,500z"/>
					<path style="fill:#B85735;" d="M215.365,309.518c-8.194-8.932-10.232-21.727-11.912-33.726
						c-0.019,0.01-0.049,0.019-0.068,0.019c0.471,6.45,0.939,12.893,1.407,19.336c3.482,7.739,4.62,16.571,8.706,24.068
						c3.532,6.482,9.068,11.599,14.505,16.593c13.441,12.342,26.881,24.684,40.321,37.026c8.419,7.732,17.028,15.578,27.167,20.755
						c0.317-1.522,0.615-3.048,0.868-4.583c1.272-7.65,1.747-15.581-0.223-23.076c-1.913-7.271-6.019-13.746-10.747-19.639
						c-7.582-0.961-15.057-3.213-22.095-6.223c-12.98-5.563-24.697-13.62-36.425-21.474
						C222.792,315.877,218.666,313.13,215.365,309.518z"/>
				</g>
				<g>
					
						<path style="fill:none;stroke:#99472B;stroke-width:0.5;stroke-linecap:round;stroke-linejoin:round;stroke-miterlimit:10;" d="
						M145.876,451.599c14.317-2.098,26.29-14.034,40.801-13.726c12.611-1.7,25.622,3.29,34.995,11.898
						c9.371,8.608,15.303,20.524,18.161,32.924c1.214,5.265,1.902,10.622,2.197,16.013"/>
					
						<path style="fill:none;stroke:#99472B;stroke-width:0.5;stroke-linecap:round;stroke-linejoin:round;stroke-miterlimit:10;" d="
						M222.64,450.686c12.808,12.777,22.551,29.989,26.916,48.022"/>
				</g>
				<path style="fill:#B85735;" d="M291.632,460.605c-4.893-7.126-12.591-11.718-20.562-14.281
					c-7.961-2.573-16.368-3.398-24.61-4.864c-7.155-1.272-14.387-3.106-20.591-6.796c7.165,0.883,14.465,0.825,21.698,1.087
					c9.126,0.32,18.436,1.204,26.746,4.98C282.623,444.509,289.855,451.644,291.632,460.605z"/>
				<path style="fill:none;stroke:#99472B;stroke-width:0.5;stroke-linecap:round;stroke-linejoin:round;stroke-miterlimit:10;" d="
					M190.746,433.345c4.145-2.961,9.592-3.485,14.649-2.864c5.058,0.612,9.922,2.262,14.912,3.291
					c0.678,0.139,1.357,0.266,2.037,0.383"/>
			</g>
			<path style="fill:#292524;" d="M405.964,470.158c2.281-4.456,3.708-10.155,3.427-15.776c-0.068-1.349-0.243-2.718-0.777-3.951
				c-0.369-0.854-0.903-1.631-1.495-2.359c-1.592-1.951-3.592-3.563-5.835-4.699c-0.087-1.456-0.136-2.815-0.437-4.116
				c3.738-1.883,6.349-5.204,7.533-8.912c1.194-3.708,1.039-7.766,0-11.523c-0.505-1.854-1.233-3.66-1.534-5.553
				c-0.534-3.369,0.272-6.805,0.262-10.213c-0.01-5.456-2.223-10.883-6.029-14.785c-0.175-2.912,0.058-6.32-0.068-9.698
				c-0.078-2-0.291-4.029-1.087-5.864c-0.495-1.155-1.204-2.194-1.922-3.213c-2.311-3.272-4.796-6.427-7.436-9.426
				c0.165-5.019-0.874-9.698-3.291-13.543c-1.311-2.078-3.009-3.941-3.854-6.252c-0.806-2.194-0.757-4.641-1.621-6.815
				c-1.058-2.66-3.359-4.65-4.524-7.252c-1.544-3.417-0.951-7.349-1.01-11.096c-0.049-3.747-1.184-8.029-4.582-9.592
				c0.981-3.33,0.641-7.427-0.631-11.038c-1.281-3.611-3.417-6.844-5.543-10.028c-1.99-2.98-3.835-6.068-5.961-8.951
				c-2.874-3.893-4.504-8.252-5.068-12.756c-0.573-4.514-0.311-9.077-0.039-13.62c0.175-3.097,0.359-6.223,1.272-9.194
				c0.68-2.204,1.738-4.271,2.864-6.281c2.087-3.718,4.408-7.31,6.941-10.737c1.34-1.806,2.786-3.611,4.738-4.728
				c1.447-0.835,3.233-1.349,4.495-2.379c-7.815-3.941-15.64-7.922-23.455-11.921c1.223,5.32,0.534,11.048-0.777,16.407
				c-0.68,2.825-1.534,5.64-1.611,8.553c-0.068,2.563,0.466,5.106,0.922,7.63c1.679,9.291,2.563,18.581,1.485,27.969
				c-1.078,9.378-4.155,18.872-9.077,26.93c-3.67,6.009-5.825,12.892-8.019,18.96c-1.087,3-2.437,5.796-4.145,8.495
				c-2.883,4.553-6.359,8.135-9.65,12.417c-3.476,4.543-5.883,10.339-10.98,12.941c-1.514,0.777-3.184,1.214-4.854,1.553
				c-6.33,1.301-12.795,1.388-19.203,0.553c4.728,5.893,8.834,12.368,10.747,19.639c1.971,7.495,1.495,15.426,0.223,23.076
				c-1.514,9.155-4.165,18.115-7.854,26.629c-1.048,2.417-2.204,4.932-1.951,7.553c0.155,1.641,0.854,3.184,1.582,4.67
				c4.116,8.427,10.213,17.028,19.368,19.028c6.349,1.378,13.261-0.689,19.3,1.699c5.165,2.029,8.99,7.097,14.465,8
				c1.942,0.32,4.01,0.097,5.805,0.893c1.854,0.825,3.087,2.602,4.194,4.31c7.66,11.834,13.669,24.736,17.805,38.211h48.938
				C418.477,488.952,414.07,477.701,405.964,470.158z M388.869,361.489c-0.982-0.68-2.539-1.467-3.564-2.792
				c-0.641-0.828-1.036-1.824-1.288-2.841c-0.372-1.5-0.445-3.055-0.476-4.6c-0.045-2.257,0-4.516,0.133-6.771
				c0.507,1.168,1.625,2.124,2.46,3.275c0.402,0.555,0.738,1.154,1.041,1.77C388.984,353.203,389.586,357.458,388.869,361.489z"/>
			<g>
				<g>
					<path style="fill:#D26944;" d="M349.832,236.475c1.679,9.291,2.563,18.581,1.485,27.969c-1.078,9.378-4.155,18.872-9.077,26.93
						c-3.67,6.009-5.825,12.892-8.019,18.96c-1.087,3-2.437,5.796-4.145,8.495c-2.883,4.553-6.359,8.135-9.65,12.417
						c-3.476,4.543-5.883,10.339-10.98,12.941c-1.514,0.777-3.184,1.214-4.854,1.553c-6.33,1.301-12.795,1.388-19.203,0.553
						c-7.582-0.961-15.057-3.213-22.095-6.223c-12.98-5.563-24.697-13.62-36.425-21.474c-4.077-2.718-8.203-5.466-11.504-9.077
						c-8.194-8.932-10.232-21.727-11.912-33.726c-0.019,0.01-0.049,0.019-0.068,0.019c-1.281,0.456-2.854,0.709-4.165,0.34
						c-1.33-0.379-2.437-1.281-3.485-2.184c-7.786-6.679-14.863-15.3-15.776-25.523c-0.155-1.806-0.117-3.66,0.417-5.388
						c1.019-3.339,3.709-5.854,6.194-8.31c2.184-2.165,4.33-4.446,5.708-7.203c1.311-2.641,1.883-5.631,3.476-8.096
						c1.301-2.01,3.194-3.553,4.553-5.514c1.961-2.854,2.641-6.407,2.747-9.873c0.058-1.893-0.029-3.844,0.641-5.621
						c0.971-2.582,3.155-4.708,5.679-5.835c7.669-3.417,12.067-9.514,15.766-16.436c3.699-6.932,7.427-14.368,14.096-18.513
						c4.786-2.98,10.524-3.883,16.096-4.738c7.048-1.068,14.077-2.136,21.115-3.213c1.485,0.835,2.98,1.68,4.495,2.524
						c15.504,8.698,31.697,17.853,42.803,32.085c4.466,5.718,10.009,10.494,16.445,13.834c3.699,1.922,7.407,3.825,11.106,5.737
						c1.223,5.32,0.534,11.048-0.777,16.407c-0.68,2.825-1.534,5.64-1.611,8.553C348.841,231.407,349.375,233.951,349.832,236.475z"
						/>
					<path style="fill:#B85735;" d="M349.832,236.475c1.679,9.291,2.563,18.581,1.485,27.969c-1.078,9.378-4.155,18.872-9.077,26.93
						c-3.67,6.009-5.825,12.892-8.019,18.96c-1.087,3-2.437,5.796-4.145,8.495c-2.883,4.553-6.359,8.135-9.65,12.417
						c-3.476,4.543-5.883,10.339-10.98,12.941c-1.514,0.777-3.184,1.214-4.854,1.553c-6.33,1.301-12.795,1.388-19.203,0.553
						c-6.97-0.883-13.853-2.864-20.387-5.514c5.893,1.233,11.824,2.204,17.834,2.388c9.125,0.281,18.533-1.359,26.241-6.252
						c8.689-5.524,14.475-14.64,18.688-24.027c4.213-9.397,7.145-19.339,11.766-28.542c2.019-4.029,4.369-7.922,5.97-12.135
						c1.612-4.213,2.466-8.883,1.349-13.251c-2.039,2.563-6.174,4.194-9.776,3.242c-2.874-0.757-5.155-2.883-7.718-4.378
						c-4-2.33-8.883-3.097-13.407-2.126c-0.349-0.427-0.67-0.864-0.98-1.32c-1.466-0.252-2.874-0.893-4.048-1.806
						c-1.99-1.544-3.349-3.776-4.233-6.126c-0.243-0.66-0.456-1.34-0.651-2.019c-0.825-2.98-3.068-5.398-6-6.378
						c-3.747-1.243-7.048-3.33-10.019-5.689c-4.213-3.349-7.902-7.291-12.038-10.718c-6.456-5.349-13.873-9.368-21.251-13.358
						l-21.387-11.553c-3.339-1.806-7.106-3.67-10.766-2.66c-3.097,0.864-5.252,3.553-7.339,6
						c-5.689,6.669-12.387,12.504-19.785,17.222c0.98-1.097,2.019-2.155,2.854-3.359c1.961-2.854,2.641-6.407,2.747-9.873
						c0.058-1.893-0.029-3.844,0.641-5.621c0.971-2.582,3.155-4.708,5.679-5.835c7.669-3.417,12.067-9.514,15.766-16.436
						c3.699-6.932,7.427-14.368,14.096-18.513c4.786-2.98,10.524-3.883,16.096-4.738c7.048-1.068,14.077-2.136,21.115-3.213
						c1.485,0.835,2.98,1.68,4.495,2.524c15.504,8.698,31.697,17.853,42.803,32.085c4.466,5.718,10.009,10.494,16.445,13.834
						c3.699,1.922,7.407,3.825,11.106,5.737c1.223,5.32,0.534,11.048-0.777,16.407c-0.68,2.825-1.534,5.64-1.611,8.553
						C348.841,231.407,349.375,233.951,349.832,236.475z"/>
					<path style="fill:#B85735;" d="M322.584,310.476c-1.743,4.497-3.881,9.138-7.833,11.904c-4.012,2.809-9.22,3.198-14.114,2.983
						c-4.319-0.189-8.727-0.806-12.547-2.834c-6.203-3.293-9.951-9.751-13.375-15.883L322.584,310.476z"/>
				</g>
				<g>
					<path style="fill:#7A2422;" d="M328.105,303.674c-0.078,0.107-0.155,0.214-0.223,0.32c-3.446-1.476-7.388-1.262-11.154-0.602
						c-1.883-2.048-4.738-3.184-7.514-2.932c-1.709,0.155-3.359,0.796-5.067,0.748c-2.379-0.049-4.553-1.398-6.912-1.718
						c-2.903-0.388-5.718,0.796-8.349,2.165c-6.184-0.485-12.601,2.437-18.61,1.252c-0.485-0.738-0.165-1.777,0.689-2.058
						c2.932-0.961,5.573-2.757,7.99-4.699c2.913-2.359,5.621-4.99,8.766-7.019c3.145-2.019,6.893-3.417,10.601-2.922
						c2.349,0.311,4.592,1.359,6.961,1.291c2.116-0.068,4.087-1.243,6.203-1.243c7.388,0,14.164,9.174,16.805,14.164
						C328.833,301.461,328.794,302.723,328.105,303.674z"/>
					<path style="fill:#993331;" d="M327.882,303.994c-2.194,3.165-3.34,7.097-5.941,9.96c-2.806,3.077-6.961,4.553-11.058,5.291
						c-7.815,1.417-16.047,0.485-23.358-2.631c-6.699-2.854-12.611-7.543-17.193-13.611c-0.019-0.029-0.049-0.058-0.058-0.097
						c6.009,1.184,12.426-1.738,18.61-1.252c0.408,0.029,0.816,0.078,1.214,0.136c3.874,0.612,7.368,2.718,11.232,3.379
						c4.543,0.786,9.145-0.495,13.659-1.437c0.573-0.117,1.155-0.233,1.738-0.34C320.494,302.732,324.435,302.519,327.882,303.994z"
						/>
					<path style="fill:#292524;" d="M316.727,303.392c-0.583,0.107-1.165,0.223-1.738,0.34c-4.514,0.942-9.116,2.223-13.659,1.437
						c-3.864-0.66-7.359-2.767-11.232-3.379c-0.398-0.058-0.806-0.107-1.214-0.136c2.631-1.369,5.446-2.553,8.349-2.165
						c2.359,0.32,4.534,1.67,6.912,1.718c1.708,0.049,3.359-0.592,5.067-0.748C311.99,300.208,314.844,301.344,316.727,303.392z"/>
				</g>
				<g>
					
						<path style="fill:none;stroke:#99472B;stroke-width:0.5;stroke-linecap:round;stroke-linejoin:round;stroke-miterlimit:10;" d="
						M308.572,217.297c-0.317,6.971-0.632,13.994,0.401,20.896c1.035,6.901,3.517,13.754,8.176,18.948
						c1.528,1.705,3.306,3.26,4.292,5.327c1.275,2.675,0.973,6.033-0.76,8.435c-1.733,2.403-4.825,3.75-7.764,3.383"/>
					
						<path style="fill:none;stroke:#99472B;stroke-width:0.5;stroke-linecap:round;stroke-linejoin:round;stroke-miterlimit:10;" d="
						M292.522,275.504c-3.45,1.062-7.432,0.161-10.092-2.281c-2.658-2.442-3.892-6.334-3.127-9.862"/>
					<path style="fill:#292524;" d="M298.398,266.803c-0.699,0.243-1.369,0.621-1.98,1.039c-1.165,0.777-2.204,1.738-3.408,2.437
						c-1.204,0.709-2.66,1.155-4.009,0.796c-1.35-0.349-2.495-1.709-2.233-3.078c0.165-0.864,0.806-1.553,1.514-2.068
						c1.728-1.243,4-1.689,6.077-1.252C295.874,264.987,297.272,265.745,298.398,266.803z"/>
					<path style="fill:#292524;" d="M316.387,270.385c-1.301,0.942-3.116,0.961-4.592,0.311c-1.252-0.553-2.272-1.534-3.078-2.66
						l0.136-0.136c1.194-1.184,2.437-2.408,4.029-2.971c1.582-0.563,3.621-0.233,4.505,1.194
						C318.242,267.482,317.688,269.443,316.387,270.385z"/>
					
						<path style="fill:none;stroke:#99472B;stroke-width:0.5;stroke-linecap:round;stroke-linejoin:round;stroke-miterlimit:10;" d="
						M308.266,268.476c-1.025,0.981-2.126,1.904-3.47,2.327c-1.146,0.369-2.476,0.32-3.446-0.388
						c-0.786-0.573-1.233-1.485-1.796-2.281c-0.249-0.356-0.525-0.691-0.822-1.002"/>
				</g>
				<path style="fill:#292524;" d="M280.788,211.695c-8.664-5.54-19.799-5.478-29.124-9.811c-2.509-1.167-4.917-2.661-7.63-3.197
					c-3.563-0.705-7.268,0.337-10.513,1.965c-3.245,1.629-6.167,3.831-9.492,5.412c5.539-5.384,11.878-10.465,19.45-11.987
					c5.508-1.107,11.24-0.226,16.641,1.322c5.401,1.548,10.593,3.753,15.974,5.37c1.709,0.514,3.459,0.978,4.991,1.893
					c1.531,0.915,2.846,2.371,3.122,4.133C284.481,208.56,283.429,210.566,280.788,211.695z"/>
				<path style="fill:none;stroke:#99472B;stroke-width:0.5;stroke-linecap:round;stroke-linejoin:round;stroke-miterlimit:10;" d="
					M192.836,249.561c-1.418-1.05-2.816-2.205-3.702-3.733c-0.883-1.527-1.169-3.508-0.311-5.051
					c0.627-1.128,1.753-1.869,2.727-2.716c0.974-0.848,1.878-1.988,2.435-3.288c3.219,8.94,5.186,18.331,5.828,27.812"/>
				<path style="fill:#292524;" d="M350.434,203.438c-3.34-0.378-6.825,0.796-10.029,2.058c-7.495,2.961-14.776,6.446-21.921,9.941
					c-2.514-0.495-4.009-3.417-3.543-5.932c0.476-2.514,2.456-4.514,4.699-5.738c2.252-1.214,4.776-1.777,7.233-2.485
					c3.844-1.097,7.582-2.553,11.164-4.34c0.709,0.427,1.427,0.825,2.155,1.204C343.599,199.924,347.026,201.671,350.434,203.438z"
					/>
				<g>
					
						<path style="fill:none;stroke:#99472B;stroke-width:0.5;stroke-linecap:round;stroke-linejoin:round;stroke-miterlimit:10;" d="
						M238.836,217.827c4.202-0.966,8.42-1.935,12.715-2.314c4.295-0.379,8.697-0.152,12.783,1.225
						c4.498,1.517,8.464,4.39,11.693,7.871"/>
					<g>
						<path style="fill:#292524;" d="M270.468,224.757c-2.456-1.709-5.097-3.204-7.97-4.038c-3.582-1.049-7.407-1.019-11.096-0.437
							c-1.029,0.165-2.058,0.379-3.077,0.612c-0.864-0.408-1.68-0.932-2.398-1.563c0.146,0.728,0.534,1.369,1.058,1.903
							c-0.466,0.117-0.932,0.233-1.388,0.359c-0.718-0.495-1.408-1.019-2.068-1.592c0.194,0.699,0.573,1.349,1.068,1.883
							c-0.447,0.126-0.893,0.243-1.34,0.379c-1.262-0.583-2.485-1.243-3.641-2c0.476,0.98,1.214,1.835,2.097,2.476
							c-0.379,0.116-0.757,0.233-1.136,0.349c-0.136,0.019-0.291,0.01-0.427,0.019c-2.029-0.913-3.961-2.058-5.718-3.417
							c0.699,1.233,1.631,2.311,2.728,3.213c-2.107-0.388-4.204-1.233-6.048-2.476c1.913,3.291,5.271,5.728,9.174,6.844
							c-1.097,0.282-2.204,0.514-3.33,0.66c1.631,0.437,3.359,0.476,5.019,0.136c0.359,0.301,0.718,0.592,1.087,0.874
							c-0.476,0.903-1.068,1.747-1.747,2.505c1.039-0.408,2-0.99,2.864-1.689c0.398,0.272,0.796,0.544,1.204,0.806
							c-0.301,0.825-0.621,1.65-0.98,2.456c0.728-0.534,1.398-1.165,1.98-1.844c0.485,0.272,0.961,0.524,1.456,0.767
							c-0.291,0.825-0.65,1.631-1.107,2.379c0.806-0.476,1.398-1.233,1.942-2.01c0.621,0.272,1.262,0.524,1.913,0.728
							c-0.049,0.786-0.204,1.573-0.495,2.311c0.786-0.495,1.456-1.146,1.98-1.913c0.058,0.02,0.126,0.039,0.194,0.058
							c4.068,0.864,8.291,0.233,12.378-0.563c4.077-0.796,8.194-1.767,12.339-1.553
							C275.235,228.388,272.924,226.456,270.468,224.757z M264.585,231.805c-3.728,0.66-7.582,1.136-11.3,0.398
							c-3.718-0.747-7.32-2.912-8.961-6.33c1.65-0.495,3.378-1.019,5.174-1.456c3.029-0.738,6.213-1.243,9.436-1.019
							c1.33,0.097,2.66,0.32,3.951,0.68h0.01c3.378,0.883,6.524,2.611,9.077,5C269.653,230.796,267.09,231.359,264.585,231.805z"/>
						<path style="fill:#292524;" d="M262.527,227.301c-0.883,1.922-2.699,3.378-4.767,3.825c-2.058,0.447-4.32-0.136-5.912-1.514
							c-1.476-1.291-2.349-3.242-2.349-5.194c3.029-0.738,6.213-1.243,9.436-1.019c1.33,0.097,2.66,0.32,3.951,0.68h0.01
							C263.178,225.116,262.983,226.301,262.527,227.301z"/>
						<path style="fill:#FFE6CC;" d="M271.973,229.077c-2.32,1.718-4.883,2.281-7.388,2.728c-3.728,0.66-7.582,1.136-11.3,0.398
							c-3.718-0.747-7.32-2.912-8.961-6.33c1.65-0.495,3.378-1.019,5.174-1.456c0,1.951,0.874,3.903,2.349,5.194
							c1.592,1.379,3.854,1.961,5.912,1.514c2.068-0.447,3.883-1.903,4.767-3.825c0.456-1,0.65-2.184,0.369-3.223
							C266.274,224.961,269.42,226.689,271.973,229.077z"/>
						<path style="fill:#FFE6CC;" d="M256.654,223.562c-0.383-0.398-1.064-0.468-1.513-0.146c-0.449,0.322-0.597,1.003-0.311,1.476
							c0.286,0.472,0.972,0.653,1.446,0.372C256.753,224.981,257.186,224.112,256.654,223.562z"/>
					</g>
				</g>
				<g>
					
						<path style="fill:none;stroke:#99472B;stroke-width:0.5;stroke-linecap:round;stroke-linejoin:round;stroke-miterlimit:10;" d="
						M320.299,225.796c3.641-3.324,8.036-5.934,12.864-6.938c4.827-1.006,10.101-0.293,14.187,2.467"/>
					<g>
						<path style="fill:#292524;" d="M349.434,224.825c-2.922-0.087-5.679-1.33-8.533-1.99c-4.776-1.107-9.922-0.524-14.339,1.611
							c-4.407,2.146-8.048,5.825-10.145,10.252c6.835-1.184,13.135,2.262,19.436,1.573c3.475-0.379,6.786-2.058,8.912-4.592
							c1.417-0.058,2.835-0.204,4.233-0.466c-0.068-0.786-0.107-1.573-0.087-2.369C348.948,227.485,349.152,226.155,349.434,224.825
							z M342.463,231.009c-2.291,2.165-5.31,3.495-8.427,3.961c-3.126,0.456-6.339,0.078-9.339-0.893
							c-1.699-0.553-3.33-1.281-4.961-2.019c0.932-1.388,2.126-2.582,3.505-3.543c2.223-1.553,4.902-2.495,7.621-2.738
							c1.738-0.155,3.475-0.039,5.184,0.311c2.612,0.534,5.126,1.602,7.359,3.068C343.58,229.864,343.036,230.475,342.463,231.009z"
							/>
						<path style="fill:#FFE6CC;" d="M342.463,231.009c-2.291,2.165-5.31,3.495-8.427,3.961c-3.126,0.456-6.339,0.078-9.339-0.893
							c-1.699-0.553-3.33-1.281-4.961-2.019c0.932-1.388,2.126-2.582,3.505-3.543c0.175,1.738,1.087,3.388,2.466,4.466
							c1.534,1.184,3.602,1.631,5.495,1.204c1.893-0.427,3.563-1.699,4.495-3.408c0.476-0.864,0.757-1.844,0.747-2.825
							c0-0.641-0.136-1.281-0.398-1.864c2.612,0.534,5.126,1.602,7.359,3.068C343.58,229.864,343.036,230.475,342.463,231.009z"/>
						<path style="fill:#292524;" d="M336.444,227.951c0.01,0.98-0.272,1.961-0.747,2.825c-0.932,1.709-2.602,2.98-4.495,3.408
							c-1.893,0.427-3.961-0.02-5.495-1.204c-1.379-1.078-2.291-2.728-2.466-4.466c2.223-1.553,4.902-2.495,7.621-2.738
							c1.738-0.155,3.475-0.039,5.184,0.311C336.308,226.67,336.444,227.311,336.444,227.951z"/>
						<path style="fill:#FFE6CC;" d="M328.291,226.409c-0.384-0.398-1.064-0.468-1.514-0.147c-0.448,0.322-0.597,1.003-0.311,1.476
							c0.286,0.472,0.972,0.653,1.447,0.372C328.39,227.829,328.823,226.96,328.291,226.409z"/>
					</g>
				</g>
				<path style="fill:#FFE6CC;" d="M178.585,282.628c0-13.059,6.223-23.646,13.899-23.646c7.676,0,13.899,10.587,13.899,23.646
					c0,13.059-6.223,23.645-13.899,23.645C184.808,306.273,178.585,295.687,178.585,282.628z"/>
			</g>
		</g>
	</g>
</g>
</svg>
